<svg width="164" height="29" viewBox="0 0 164 29" fill="none" xmlns="http://www.w3.org/2000/svg">
  <path d="M0 5.5H7.5C11.6421 5.5 15 8.85786 15 13V13C15 17.1421 11.6421 20.5 7.5 20.5H0V5.5Z" fill="#FF4400"/>
  <path d="M17 5.5H24.5C28.6421 5.5 32 8.85786 32 13V13C32 17.1421 28.6421 20.5 24.5 20.5H17V5.5Z" fill="#D30000"/>
  <path d="M39 6H45L51 20.5H45.5L44.5 18H39.5L38.5 20.5H33L39 6ZM42 10.5L40.5 14.5H43.5L42 10.5Z" fill="#19191E"/>
  <path d="M52 6H57.5V16.5H64V20.5H52V6Z" fill="#19191E"/>
  <path d="M65 6H70.5V20.5H65V6Z" fill="#19191E"/>
  <path d="M72 6H77.5V16.5H84V20.5H72V6Z" fill="#19191E"/>
  <path d="M85 6H99V10H90.5V11.5H98V15H90.5V16.5H99V20.5H85V6Z" fill="#19191E"/>
  <path d="M100 6H105.5V16.5H112V20.5H100V6Z" fill="#19191E"/>
  <path d="M113 6H127V10H118.5V11.5H126V15H118.5V16.5H127V20.5H113V6Z" fill="#19191E"/>
  <path d="M128 6H142V10H133.5V11.5H141V15H133.5V16.5H142V20.5H128V6Z" fill="#19191E"/>
  <path d="M143 6H148.5V16.5H155V20.5H143V6Z" fill="#19191E"/>
  <path d="M156 6H164L160 13.5L164 20.5H156L154 15.5L156 6Z" fill="#19191E"/>
</svg>

